<svg width="352" height="78" viewBox="0 0 352 78" fill="none" xmlns="http://www.w3.org/2000/svg">
<path d="M66.9894 48.4C66.9894 42.8 68.2294 37.84 70.7094 33.52C73.2694 29.2 76.7094 25.8 81.0294 23.32C85.3494 20.84 90.1894 19.6 95.5494 19.6C100.989 19.6 105.829 20.84 110.069 23.32C114.389 25.8 117.789 29.2 120.269 33.52C122.829 37.84 124.109 42.8 124.109 48.4C124.109 53.92 122.829 58.88 120.269 63.28C117.789 67.6 114.389 71 110.069 73.48C105.829 75.96 100.989 77.2 95.5494 77.2C90.1894 77.2 85.3494 75.96 81.0294 73.48C76.7094 71 73.2694 67.6 70.7094 63.28C68.2294 58.88 66.9894 53.92 66.9894 48.4ZM76.7094 48.4C76.7094 52.24 77.5094 55.64 79.1094 58.6C80.7894 61.56 83.0294 63.92 85.8294 65.68C88.7094 67.36 91.9494 68.2 95.5494 68.2C99.1494 68.2 102.349 67.36 105.149 65.68C108.029 63.92 110.269 61.56 111.869 58.6C113.549 55.64 114.389 52.24 114.389 48.4C114.389 44.56 113.549 41.16 111.869 38.2C110.269 35.16 108.029 32.8 105.149 31.12C102.349 29.44 99.1494 28.6 95.5494 28.6C91.9494 28.6 88.7094 29.44 85.8294 31.12C83.0294 32.8 80.7894 35.16 79.1094 38.2C77.5094 41.16 76.7094 44.56 76.7094 48.4Z" fill="currentColor"/>
<path d="M138.017 58.96C138.017 61.04 138.497 62.84 139.457 64.36C140.497 65.88 141.897 67.04 143.657 67.84C145.497 68.56 147.577 68.92 149.897 68.92C152.857 68.92 155.497 68.32 157.817 67.12C160.217 65.92 162.097 64.24 163.457 62.08C164.897 59.84 165.617 57.28 165.617 54.4L167.537 61.6C167.537 65.12 166.457 68.04 164.297 70.36C162.217 72.68 159.617 74.4 156.497 75.52C153.457 76.64 150.417 77.2 147.377 77.2C144.017 77.2 140.857 76.52 137.897 75.16C135.017 73.72 132.697 71.68 130.937 69.04C129.177 66.4 128.297 63.2 128.297 59.44C128.297 54.08 130.177 49.8 133.937 46.6C137.777 43.32 143.097 41.68 149.897 41.68C153.897 41.68 157.217 42.16 159.857 43.12C162.577 44 164.737 45.04 166.337 46.24C167.937 47.36 169.017 48.28 169.577 49V54.64C166.777 52.72 163.897 51.36 160.937 50.56C157.977 49.68 154.817 49.24 151.457 49.24C148.337 49.24 145.777 49.64 143.777 50.44C141.857 51.24 140.417 52.36 139.457 53.8C138.497 55.24 138.017 56.96 138.017 58.96ZM136.577 33.52L131.897 26.44C133.977 24.92 136.817 23.4 140.417 21.88C144.097 20.36 148.497 19.6 153.617 19.6C157.937 19.6 161.697 20.28 164.897 21.64C168.177 22.92 170.697 24.8 172.457 27.28C174.297 29.76 175.217 32.8 175.217 36.4V76H165.617V37.72C165.617 35.8 165.297 34.24 164.657 33.04C164.017 31.76 163.097 30.76 161.897 30.04C160.777 29.32 159.457 28.8 157.937 28.48C156.417 28.16 154.817 28 153.137 28C150.417 28 147.937 28.32 145.697 28.96C143.537 29.6 141.697 30.36 140.177 31.24C138.657 32.12 137.457 32.88 136.577 33.52Z" fill="currentColor"/>
<path d="M190.151 59.08C191.271 60.76 192.551 62.32 193.991 63.76C195.431 65.2 197.071 66.36 198.911 67.24C200.831 68.04 202.911 68.44 205.151 68.44C207.871 68.44 209.991 67.84 211.511 66.64C213.111 65.36 213.911 63.64 213.911 61.48C213.911 59.56 213.271 57.96 211.991 56.68C210.791 55.32 209.231 54.2 207.311 53.32C205.391 52.36 203.351 51.48 201.191 50.68C198.791 49.72 196.351 48.6 193.871 47.32C191.471 45.96 189.431 44.24 187.751 42.16C186.151 40 185.351 37.32 185.351 34.12C185.351 30.84 186.191 28.12 187.871 25.96C189.631 23.8 191.871 22.2 194.591 21.16C197.391 20.12 200.271 19.6 203.231 19.6C206.191 19.6 208.951 20.08 211.511 21.04C214.151 22 216.471 23.28 218.471 24.88C220.471 26.48 222.031 28.32 223.151 30.4L215.471 35.32C213.951 33.24 212.031 31.52 209.711 30.16C207.471 28.8 204.911 28.12 202.031 28.12C200.031 28.12 198.311 28.56 196.871 29.44C195.431 30.32 194.711 31.68 194.711 33.52C194.711 34.96 195.271 36.24 196.391 37.36C197.511 38.48 198.951 39.48 200.711 40.36C202.471 41.24 204.311 42.08 206.231 42.88C209.431 44.16 212.351 45.56 214.991 47.08C217.631 48.52 219.711 50.28 221.231 52.36C222.831 54.44 223.631 57.12 223.631 60.4C223.631 65.2 221.871 69.2 218.351 72.4C214.911 75.6 210.351 77.2 204.671 77.2C200.991 77.2 197.671 76.56 194.711 75.28C191.751 73.92 189.231 72.2 187.151 70.12C185.151 68.04 183.631 65.92 182.591 63.76L190.151 59.08Z" fill="currentColor"/>
<path d="M231 7.00003C231 5.16003 231.64 3.60003 232.92 2.32003C234.28 1.04003 235.84 0.400024 237.6 0.400024C239.44 0.400024 241 1.04003 242.28 2.32003C243.56 3.60003 244.2 5.16003 244.2 7.00003C244.2 8.76003 243.56 10.32 242.28 11.68C241 12.96 239.44 13.6 237.6 13.6C235.84 13.6 234.28 12.96 232.92 11.68C231.64 10.32 231 8.76003 231 7.00003Z" fill="currentColor"/>
<path d="M232.8 20.8H242.4V76H232.8V20.8Z" fill="currentColor"/>
<path d="M260.32 48.4C260.32 52.24 261.12 55.64 262.72 58.6C264.4 61.56 266.64 63.92 269.44 65.68C272.32 67.36 275.56 68.2 279.16 68.2C282.12 68.2 284.88 67.76 287.44 66.88C290.08 65.92 292.36 64.68 294.28 63.16C296.2 61.56 297.56 59.88 298.36 58.12V70.12C296.44 72.36 293.68 74.12 290.08 75.4C286.56 76.6 282.92 77.2 279.16 77.2C273.8 77.2 268.96 75.96 264.64 73.48C260.32 71 256.88 67.6 254.32 63.28C251.84 58.88 250.6 53.92 250.6 48.4C250.6 42.8 251.84 37.84 254.32 33.52C256.88 29.2 260.32 25.8 264.64 23.32C268.96 20.84 273.8 19.6 279.16 19.6C282.92 19.6 286.56 20.24 290.08 21.52C293.68 22.72 296.44 24.44 298.36 26.68V38.68C297.56 36.84 296.2 35.16 294.28 33.64C292.36 32.12 290.08 30.92 287.44 30.04C284.88 29.08 282.12 28.6 279.16 28.6C275.56 28.6 272.32 29.44 269.44 31.12C266.64 32.8 264.4 35.16 262.72 38.2C261.12 41.16 260.32 44.56 260.32 48.4Z" fill="currentColor"/>
<path d="M314.025 58.96C314.025 61.04 314.505 62.84 315.465 64.36C316.505 65.88 317.905 67.04 319.665 67.84C321.505 68.56 323.585 68.92 325.905 68.92C328.865 68.92 331.505 68.32 333.825 67.12C336.225 65.92 338.105 64.24 339.465 62.08C340.905 59.84 341.625 57.28 341.625 54.4L343.545 61.6C343.545 65.12 342.465 68.04 340.305 70.36C338.225 72.68 335.625 74.4 332.505 75.52C329.465 76.64 326.425 77.2 323.385 77.2C320.025 77.2 316.865 76.52 313.905 75.16C311.025 73.72 308.705 71.68 306.945 69.04C305.185 66.4 304.305 63.2 304.305 59.44C304.305 54.08 306.185 49.8 309.945 46.6C313.785 43.32 319.105 41.68 325.905 41.68C329.905 41.68 333.225 42.16 335.865 43.12C338.585 44 340.745 45.04 342.345 46.24C343.945 47.36 345.025 48.28 345.585 49V54.64C342.785 52.72 339.905 51.36 336.945 50.56C333.985 49.68 330.825 49.24 327.465 49.24C324.345 49.24 321.785 49.64 319.785 50.44C317.865 51.24 316.425 52.36 315.465 53.8C314.505 55.24 314.025 56.96 314.025 58.96ZM312.585 33.52L307.905 26.44C309.985 24.92 312.825 23.4 316.425 21.88C320.105 20.36 324.505 19.6 329.625 19.6C333.945 19.6 337.705 20.28 340.905 21.64C344.185 22.92 346.705 24.8 348.465 27.28C350.305 29.76 351.225 32.8 351.225 36.4V76H341.625V37.72C341.625 35.8 341.305 34.24 340.665 33.04C340.025 31.76 339.105 30.76 337.905 30.04C336.785 29.32 335.465 28.8 333.945 28.48C332.425 28.16 330.825 28 329.145 28C326.425 28 323.945 28.32 321.705 28.96C319.545 29.6 317.705 30.36 316.185 31.24C314.665 32.12 313.465 32.88 312.585 33.52Z" fill="currentColor"/>
<path d="M14.3117 40.5443L10.3167 76H0.16272L8.15274 14.8264L32.0396 54.3604L56.0096 14.8264L63.9996 76H53.8457L49.7674 40.5443L32.0396 70.5901L14.3117 40.5443Z" fill="currentColor"/>
</svg>
